<svg width="101" height="101" viewBox="0 0 101 101" fill="none" xmlns="http://www.w3.org/2000/svg">
<path d="M27.3797 65.5277C21.3279 57.2695 18.6173 47.0307 19.7903 36.8599C20.9633 26.689 25.9334 17.336 33.7062 10.6722C41.479 4.00844 51.4813 0.525201 61.712 0.919408C71.9427 1.31362 81.6473 5.55619 88.8843 12.7984C96.1213 20.0405 100.357 29.7482 100.744 39.9791C101.131 50.2101 97.6403 60.2099 90.9709 67.978C84.3016 75.746 74.9451 80.7094 64.7734 81.8751C54.6016 83.0408 44.3649 80.3229 36.111 74.2652H36.1172C35.9297 74.5152 35.7297 74.7527 35.5047 74.9839L11.4422 99.0464C10.2703 100.219 8.68051 100.878 7.02257 100.879C5.36463 100.88 3.77437 100.221 2.60161 99.0496C1.42886 97.8776 0.769678 96.2878 0.769092 94.6299C0.768506 92.9719 1.42656 91.3817 2.59848 90.2089L26.661 66.1464C26.8844 65.9202 27.1247 65.7176 27.3797 65.5277ZM25.7672 41.5027C25.7672 46.0169 26.6564 50.4869 28.3839 54.6574C30.1114 58.828 32.6434 62.6175 35.8354 65.8095C39.0275 69.0015 42.8169 71.5335 46.9875 73.261C51.1581 74.9885 55.628 75.8777 60.1422 75.8777C64.6564 75.8777 69.1264 74.9885 73.297 73.261C77.4675 71.5335 81.257 69.0015 84.449 65.8095C87.641 62.6175 90.1731 58.828 91.9006 54.6574C93.6281 50.4869 94.5172 46.0169 94.5172 41.5027C94.5172 32.3859 90.8956 23.6424 84.449 17.1959C78.0025 10.7493 69.2591 7.12768 60.1422 7.12768C51.0254 7.12768 42.282 10.7493 35.8354 17.1959C29.3889 23.6424 25.7672 32.3859 25.7672 41.5027Z" fill="#242423"/>
</svg>
